# xmcd CD database file
#
# Track frame offsets:
#	150
#	51381
#	85875
#	98247
#	128865
#	161522
#	187503
#	219010
#	258994
#	301747
#
# Disc length: 4270 seconds
#
# Revision: 0
# Processed by: cddbd v1.5.2PL0 Copyright (c) Steve Scherf et al.
# Submitted via: CDex 1.70beta2
#
DISCID=7510ac0a
DTITLE=Tam de Villiers Quartet - Motion Unfolding
DYEAR=2011
DGENRE=Jazz
TTITLE0=Archon
TTITLE1=Duplex
TTITLE2=Condigne Dekusion
TTITLE3=I got an idea - Part 1: Winding
TTITLE4=I got an idea - Part 2: Release
TTITLE5=Torrid Momentum
TTITLE6=Milliped
TTITLE7=Red Sketch
TTITLE8=The Hollow
TTITLE9=Vivije
EXTD=YEAR: 2011
EXTT0=
EXTT1=
EXTT2=
EXTT3=
EXTT4=
EXTT5=
EXTT6=
EXTT7=
EXTT8=
EXTT9=
PLAYORDER=
